<svg width="24" height="28" viewBox="0 0 24 28" fill="none" xmlns="http://www.w3.org/2000/svg">
<path d="M12.6605 0C13.2534 0.116697 13.854 0.182339 14.4235 0.350091C17.8013 1.3566 19.9777 4.17921 20.0011 7.55613C20.0011 7.84788 20.0635 8.00834 20.3833 8.14691C21.101 8.44595 21.4754 9.01485 21.4988 9.7515C21.5222 10.4006 21.5222 11.0498 21.4988 11.6916C21.4754 12.472 21.0698 13.0482 20.3053 13.3618C20.0635 13.4639 20.0011 13.5733 20.0089 13.7994C20.0479 14.6892 19.7437 15.4551 18.9948 16.024C18.2771 16.571 17.458 16.7387 16.5531 16.5345C16.3737 16.4908 16.2567 16.5053 16.1163 16.6439C15.9759 16.7898 16.0305 16.8992 16.0929 17.0305C16.3347 17.5483 16.5609 18.0735 16.8105 18.584C16.873 18.7153 16.9978 18.832 17.1226 18.9195C17.3878 19.0946 17.6842 19.2185 17.9417 19.3936C18.7608 19.9552 19.6968 20.2178 20.6798 20.4074C22.4271 20.7356 23.5583 21.7275 23.9015 23.3686C24.0341 23.9958 24.0263 24.6887 23.9171 25.3233C23.7533 26.2641 23.0746 26.8987 22.0761 27.1029C20.8124 27.3582 19.533 27.577 18.2537 27.7156C16.9588 27.8541 15.6482 27.8833 14.3455 27.9635C14.2675 27.9708 14.1973 27.9854 14.1193 28C12.7151 28 11.311 28 9.90682 28C9.24375 27.9635 8.58848 27.9271 7.92541 27.8906C5.9206 27.7739 3.9314 27.577 1.97339 27.1175C0.935881 26.8768 0.194804 26.1401 0.0621898 25.1409C-0.0314201 24.4553 -0.0392209 23.7551 0.179202 23.0841C0.655052 21.6035 1.73156 20.7283 3.33073 20.4001C3.47115 20.3709 3.61156 20.3272 3.75978 20.3199C4.77388 20.2324 5.54616 19.6562 6.40425 19.2258C6.93471 18.9633 7.29355 18.6205 7.46517 18.0807C7.57438 17.738 7.7538 17.4025 7.92541 17.0742C8.02682 16.8773 8.01902 16.746 7.84741 16.5783C7.48857 16.2282 7.16093 15.8562 6.8177 15.4915C6.31844 14.9664 6.03762 14.3683 6.02201 13.6608C6.02201 13.6025 6.00641 13.5369 6.00641 13.515C5.44475 13.515 4.8987 13.5369 4.36044 13.5077C3.33853 13.4493 2.55065 12.6616 2.53505 11.7062C2.52725 11.057 2.51945 10.4152 2.53505 9.76608C2.55845 8.97109 2.9797 8.40219 3.75978 8.08856C3.986 8.00104 4.03281 7.89164 4.025 7.68742C3.9938 5.47017 4.81289 3.56655 6.53687 2.0349C7.824 0.889815 9.36857 0.226101 11.1472 0.0437618C11.2252 0.0364683 11.2954 0.0145871 11.3734 0C11.8024 0 12.2393 0 12.6605 0ZM12.0208 22.5225C11.4046 22.9674 10.9677 23.5145 10.6245 24.1417C10.3593 24.6158 9.92242 24.7617 9.39977 24.5501C9.08774 24.4262 8.7757 24.2876 8.47927 24.1344C7.09073 23.4051 5.95181 22.4131 4.9689 21.2462C4.85969 21.1149 4.76608 21.0638 4.57886 21.1076C4.15762 21.217 3.72077 21.2826 3.29953 21.3847C2.12161 21.6765 1.36492 22.3913 1.1075 23.4999C1.00609 23.9302 1.02949 24.3897 1.02949 24.8346C1.02949 25.5275 1.48194 26.038 2.19961 26.2204C4.47745 26.7747 6.8021 26.9424 9.14234 27.03C12.1613 27.1467 15.188 27.1248 18.1913 26.8039C19.416 26.6726 20.6329 26.4392 21.8421 26.2131C22.5363 26.0818 22.9576 25.5567 22.9888 24.9002C23.0044 24.5939 23.0044 24.2803 22.9888 23.974C22.903 22.6903 22.0293 21.7057 20.6954 21.392C20.2975 21.2972 19.8919 21.2316 19.5018 21.1295C19.2834 21.0711 19.1586 21.1295 19.0182 21.2972C17.8481 22.6757 16.4673 23.8281 14.7121 24.5283C14.0647 24.7908 13.6824 24.6523 13.347 24.0615C13.035 23.4561 12.6059 22.9456 12.0208 22.5225ZM16.9978 8.9565C15.9135 8.77416 14.8681 8.65017 13.854 8.40948C12.6917 8.13962 11.6542 7.62178 10.8897 6.72467C10.7649 6.5788 10.6479 6.54233 10.4685 6.5715C9.10334 6.76843 7.99562 7.3665 7.16093 8.39489C7.09853 8.47512 7.04392 8.59182 7.04392 8.68664C7.03612 10.3569 7.03612 12.0198 7.04392 13.69C7.04392 14.0839 7.19214 14.4486 7.46517 14.7476C8.17504 15.5207 8.89272 16.2938 9.61819 17.0524C10.055 17.5119 10.6167 17.738 11.2798 17.738C11.7478 17.738 12.2159 17.7234 12.6839 17.738C13.9008 17.7744 14.5327 17.0013 15.1958 16.2136C14.8837 16.1407 14.6029 16.0677 14.3299 16.0021C13.9554 16.6075 13.6356 16.7314 12.9335 16.5783C12.5357 16.4908 12.1379 16.4032 11.74 16.3084C10.8429 16.0969 10.3593 15.3675 10.5699 14.5798C10.7805 13.8213 11.5762 13.3983 12.4421 13.5952C12.8087 13.6754 13.1832 13.763 13.5498 13.8432C14.3689 14.0255 14.5951 14.2881 14.5873 15.0904C14.8369 15.156 15.1022 15.1852 15.3362 15.2873C15.7964 15.4769 16.0851 15.3457 16.3815 14.9883C16.7403 14.558 17.0134 14.1203 17.0056 13.5587C16.9978 12.0636 17.0056 10.5684 17.0056 9.0732C17.0056 9.01485 16.9978 8.94921 16.9978 8.9565ZM16.99 7.9354C17.0446 7.24981 16.9744 6.61526 16.7559 5.99531C15.9291 3.68325 13.2456 2.28289 10.8585 2.96848C9.08774 3.47903 7.98002 4.66788 7.34035 6.26517C7.24674 6.49127 7.19994 6.73196 7.12973 6.95806C7.23114 6.95077 7.27015 6.92159 7.31695 6.88513C8.33886 6.07554 9.53238 5.65251 10.8663 5.60146C11.1316 5.59417 11.3188 5.65981 11.4904 5.87132C11.7478 6.18494 12.0208 6.51315 12.3641 6.73926C13.7214 7.65824 15.3284 7.84788 16.99 7.9354ZM6.02201 7.97916C6.02982 7.89164 6.03761 7.8187 6.03761 7.74577C6.08442 6.39646 6.54467 5.18573 7.43396 4.13545C8.93952 2.37041 10.8585 1.51706 13.2924 2.00573C16.0929 2.57463 17.9651 4.79187 18.0041 7.49779C18.0041 7.65824 18.0041 7.8187 18.0041 7.97187C18.3629 7.94999 18.6671 7.92811 19.0026 7.90623C19.065 5.39724 18.0821 3.35504 15.812 1.99844C13.2846 0.488668 10.6479 0.503256 8.13604 2.0422C5.9206 3.4061 4.9533 5.42641 5.02351 7.89893C5.37455 7.9354 5.67878 7.95728 6.02201 7.97916ZM8.7835 17.5921C8.57288 18.0443 8.39346 18.4673 8.19064 18.8757C8.11263 19.0289 8.12824 19.131 8.23745 19.2623C9.18135 20.3563 10.3749 21.0784 11.8336 21.4212C11.935 21.4431 12.052 21.4577 12.1535 21.4358C13.6668 21.1003 14.9071 20.3563 15.8588 19.204C15.8979 19.1529 15.9369 19.0654 15.9135 19.0143C15.7106 18.5475 15.4922 18.088 15.266 17.5994C14.7589 18.1172 14.1895 18.5184 13.4796 18.584C12.5747 18.6642 11.6542 18.6715 10.7415 18.6205C9.96923 18.5694 9.33736 18.161 8.7835 17.5921ZM6.02982 10.758C6.02982 10.3058 6.03762 9.84631 6.02982 9.39411C6.02202 9.04402 5.83479 8.87627 5.46035 8.86898C5.14832 8.86168 4.83629 8.86168 4.52426 8.86898C3.947 8.88356 3.54136 9.27742 3.53355 9.81714C3.52575 10.4371 3.52575 11.057 3.53355 11.677C3.54136 12.2094 3.9392 12.5814 4.50866 12.6033C4.81289 12.6179 5.10932 12.6106 5.41355 12.6033C5.8582 12.596 6.02202 12.4428 6.02982 12.0198C6.03762 11.5968 6.02982 11.1737 6.02982 10.758ZM18.0119 10.7434C18.0119 11.181 18.0041 11.6187 18.0119 12.0563C18.0197 12.4282 18.1913 12.5887 18.5813 12.596C18.8934 12.6033 19.2054 12.6033 19.5174 12.596C20.1025 12.5741 20.5003 12.1948 20.5081 11.6551C20.5159 11.0425 20.5159 10.4371 20.5081 9.82443C20.5003 9.27012 20.0869 8.88356 19.494 8.86898C19.2054 8.86168 18.909 8.86168 18.6203 8.86898C18.1991 8.87627 18.0197 9.04402 18.0119 9.43787C18.0041 9.87549 18.0119 10.3058 18.0119 10.7434ZM5.75679 20.6773C6.8489 21.9901 8.15944 22.982 9.704 23.6603C10.1018 23.1425 10.4841 22.6538 10.8351 22.2089C10.2345 21.888 9.56359 21.6035 8.97853 21.2097C8.38566 20.8085 7.87861 20.298 7.30915 19.8166C6.8411 20.0719 6.31845 20.3636 5.75679 20.6773ZM14.3377 23.6603C15.8901 22.9747 17.2006 21.9828 18.2771 20.6773C17.7154 20.3636 17.1928 20.0719 16.6545 19.7656C15.7262 20.8961 14.5483 21.6765 13.1676 22.1506C13.5576 22.6538 13.932 23.1352 14.3377 23.6603ZM18.0041 13.4931C18.0431 14.3392 17.6842 15.0466 17.0602 15.6666C18.3083 15.7906 19.2288 14.733 18.9636 13.5587C18.6671 13.5369 18.3629 13.515 18.0041 13.4931ZM13.5888 14.8132C13.1364 14.7111 12.7073 14.609 12.2861 14.5142C12.2237 14.4996 12.1535 14.485 12.0833 14.4777C11.8024 14.4486 11.5996 14.5798 11.5294 14.8132C11.467 15.0466 11.584 15.2873 11.8336 15.3603C12.3251 15.4915 12.8243 15.5936 13.347 15.7103C13.4406 15.4113 13.5108 15.1342 13.5888 14.8132Z" fill="#929292"/>
</svg>
