<svg width="24" height="24" viewBox="0 0 24 24" fill="none" xmlns="http://www.w3.org/2000/svg">
<g clip-path="url(#clip0_455_885)">
<path d="M23.9994 24.0015L18.0468 23.9945H17.7357V23.6711C17.7357 20.8132 17.7367 17.9552 17.7387 15.0973C17.7387 14.5212 17.5846 14.0243 17.1243 13.6674C16.6434 13.2948 16.1065 13.2221 15.5539 13.4668C14.995 13.715 14.6795 14.1687 14.6216 14.7955C14.6098 14.9223 14.6103 15.0507 14.6103 15.178C14.6103 18.0126 14.6103 20.8468 14.6103 23.6806V23.9784H8.35742V7.48272H14.6083V8.52511C14.758 8.42834 14.8654 8.35364 14.9773 8.28695C16.7204 7.25108 18.5292 7.19242 20.3454 8.0147C22.1954 8.85202 23.3521 10.3211 23.8408 12.3317C23.9154 12.6385 23.9478 12.9569 23.9994 13.2703V24.0015ZM22.9497 22.915C22.9546 22.8403 22.96 22.7926 22.96 22.745C22.96 19.7517 22.9909 16.7574 22.9497 13.7646C22.9198 11.565 21.9064 9.9275 19.9415 9.00143C18.3874 8.2694 16.8181 8.32255 15.3714 9.31931C14.8551 9.6748 14.439 10.1827 13.9807 10.6259C13.8482 10.7543 13.7319 10.9002 13.6087 11.0386L13.5557 11.016V8.54116H9.40512V22.9105H13.5596V22.5871C13.5596 20.0726 13.5542 17.5581 13.5596 15.0437C13.565 13.0471 15.367 11.747 17.1346 12.4525C18.1587 12.8611 18.7814 13.8388 18.7829 15.0532C18.7849 17.5762 18.7849 20.0988 18.7829 22.6212V22.915H22.9497Z" fill="white"/>
<path d="M0.00878906 7.47656H6.24103V23.9773H0.00878906V7.47656ZM1.04717 8.53349V22.9083H5.19087V8.53349H1.04717Z" fill="white"/>
<path d="M6.25715 3.22574C6.2174 5.01019 4.80754 6.4216 3.09687 6.38951C1.33467 6.35692 -0.0413323 4.90289 -0.00109265 3.11644C0.0406192 1.34754 1.47649 -0.0383006 3.22789 0.000807723C4.90618 0.0399161 6.29592 1.51701 6.25715 3.22574ZM5.20847 3.20067C5.21239 2.03294 4.26529 1.06024 3.12631 1.06325C1.98733 1.06626 1.02943 2.05249 1.04023 3.20318C1.04023 3.76793 1.25981 4.30955 1.65066 4.70889C2.0415 5.10823 2.57161 5.33258 3.12435 5.33258C3.67709 5.33258 4.2072 5.10823 4.59804 4.70889C4.98889 4.30955 5.20847 3.76793 5.20847 3.20318V3.20067Z" fill="white"/>
</g>
<defs>
<clipPath id="clip0_455_885">
<rect width="24" height="24" fill="white"/>
</clipPath>
</defs>
</svg>
