<svg width="48" height="49" viewBox="0 0 48 49" fill="none" xmlns="http://www.w3.org/2000/svg">
<g clip-path="url(#clip0_1372_1241)">
<rect width="37" height="37" transform="matrix(0.938974 0.343987 0.343987 -0.938974 0.259766 35.5779)" fill="white"/>
<path d="M22.5607 7.05345L20.4264 13.4312C19.2477 16.9536 16.4831 19.8313 12.8326 21.0845L6.47168 23.2684C5.16815 23.716 5.1756 25.5691 6.48236 26.0064L12.8602 28.1407C16.3825 29.3193 19.2601 32.0841 20.5134 35.7345L22.6974 42.0953C23.145 43.3989 24.9981 43.3914 25.4354 42.0847L27.5697 35.707C28.7484 32.1846 31.513 29.307 35.1635 28.0537L41.5244 25.8697C42.8279 25.4221 42.8204 23.569 41.5137 23.1317L35.1359 20.9975C31.6137 19.8189 28.736 17.0541 27.4827 13.4037L25.2987 7.04277C24.8511 5.73917 22.998 5.74683 22.5607 7.05345ZM11.4437 24.6181L13.7715 23.8189C18.1185 22.3264 21.6525 18.8778 23.1681 14.3487L23.9491 12.0147L24.7483 14.3426C26.2408 18.6896 29.6895 22.2236 34.2185 23.7392L36.5524 24.5202L34.2246 25.3194C29.8776 26.8119 26.3436 30.2606 24.828 34.7896L24.047 37.1236L23.2478 34.7958C21.7553 30.4487 18.3066 26.9148 13.7776 25.3991L11.4437 24.6181Z" fill="#F8962E"/>
</g>
<defs>
<clipPath id="clip0_1372_1241">
<rect width="37" height="37" fill="white" transform="matrix(0.938974 0.343987 0.343987 -0.938974 0.259766 35.5779)"/>
</clipPath>
</defs>
</svg>
