<svg width="24" height="24" viewBox="0 0 24 24" fill="none" xmlns="http://www.w3.org/2000/svg">
<path d="M24.0001 1.94068C23.8286 2.753 23.652 3.56058 23.4864 4.37223C22.247 10.447 21.0084 16.5223 19.7706 22.598C19.4918 23.9627 18.2861 24.4325 17.3369 23.5457C15.9124 22.2121 14.4926 20.8714 13.0775 19.5234C12.939 19.3914 12.8539 19.3765 12.7048 19.5071C11.4973 20.5618 10.2822 21.6056 9.0694 22.6508C8.99426 22.7185 8.92088 22.7862 8.84281 22.843C8.34326 23.2221 7.84489 23.0285 7.69579 22.3624C7.53142 21.632 7.40698 20.8894 7.26844 20.1509C6.88884 18.1201 6.511 16.0893 6.13492 14.0585C6.10322 13.8865 6.02574 13.8066 5.89366 13.7403C4.24181 12.9117 2.59132 12.0796 0.942209 11.2438C0.113348 10.8187 -0.221836 9.83373 0.152091 8.94356C0.348153 8.47715 0.683337 8.20638 1.10246 8.04865C2.09569 7.67566 3.08715 7.29455 4.0792 6.9175L21.9385 0.132592C22.9188 -0.240398 23.6408 0.179977 23.9684 1.31249C23.9725 1.32738 23.9895 1.33686 24.0001 1.34904V1.94068ZM22.6059 1.588L1.36134 9.66449C1.50046 9.74437 1.56796 9.78702 1.63841 9.82222C3.2386 10.6298 4.83997 11.4374 6.43723 12.2497C6.50846 12.2911 6.58793 12.31 6.66754 12.3044C6.74716 12.2988 6.82406 12.2689 6.8904 12.2179C10.3933 9.96686 13.8978 7.72102 17.4038 5.48037C17.5112 5.40752 17.6252 5.34828 17.7437 5.30369C17.8796 5.25933 18.0241 5.26402 18.1577 5.31715C18.2913 5.37027 18.4076 5.46928 18.4909 5.60086C18.5718 5.7291 18.6171 5.88249 18.6211 6.04095C18.6251 6.19942 18.5875 6.35558 18.5132 6.489C18.4383 6.61508 18.3536 6.73312 18.2602 6.84168C15.9243 9.66088 13.5876 12.479 11.2501 15.2959C11.1914 15.3636 11.1327 15.4394 11.0641 15.5254L18.3589 22.4105L22.6059 1.588ZM8.45303 18.7672L8.49882 18.7604C8.51349 18.711 8.52934 18.6623 8.54167 18.6122C8.79056 17.6103 9.0283 16.6037 9.29657 15.6086C9.36972 15.3366 9.49399 15.0865 9.66052 14.8762C11.0647 13.1615 12.4829 11.4611 13.8958 9.75656C13.9545 9.68886 14.0073 9.61169 14.0631 9.53994L14.0296 9.49932L7.5009 13.6801C7.82199 15.3988 8.13722 17.083 8.45303 18.7672ZM10.409 17.0072C10.1524 18.0429 9.90237 19.0488 9.63469 20.1292L11.7673 18.288L10.409 17.0072Z" fill="white"/>
</svg>
