<svg width="32" height="28" viewBox="0 0 32 28" fill="none" xmlns="http://www.w3.org/2000/svg">
<g clip-path="url(#clip0_723_1804)">
<path d="M32.0001 2.24678C31.7715 3.186 31.5359 4.11974 31.3152 5.05818C29.6627 12.082 28.0113 19.1063 26.3608 26.1311C25.9891 27.709 24.3814 28.2522 23.1158 27.2269C21.2165 25.685 19.3235 24.1348 17.4367 22.5762C17.252 22.4236 17.1385 22.4063 16.9397 22.5574C15.3297 23.7768 13.7095 24.9837 12.0925 26.1922C11.9923 26.2705 11.8945 26.3487 11.7904 26.4145C11.1243 26.8528 10.4599 26.6289 10.261 25.8588C10.0419 25.0143 9.87597 24.1556 9.69125 23.3017C9.18512 20.9537 8.68133 18.6056 8.17989 16.2576C8.13763 16.0588 8.03431 15.9664 7.85821 15.8897C5.65574 14.9317 3.4551 13.9695 1.25628 13.0032C0.15113 12.5117 -0.295782 11.3729 0.202787 10.3436C0.464204 9.80437 0.911116 9.4913 1.46995 9.30893C2.79425 8.87767 4.1162 8.43702 5.43894 8.00107L29.2513 0.156235C30.5584 -0.275023 31.5211 0.211023 31.9578 1.52045C31.9633 1.53767 31.986 1.54863 32.0001 1.56272V2.24678ZM30.1412 1.839L1.81511 11.1772C2.00061 11.2696 2.09062 11.3189 2.18454 11.3596C4.31814 12.2933 6.45329 13.227 8.58298 14.1663C8.67794 14.2141 8.78391 14.2359 8.89006 14.2295C8.99621 14.223 9.09875 14.1885 9.18721 14.1295C13.8577 11.5268 18.5304 8.93011 23.2051 6.33943C23.3483 6.25521 23.5003 6.18672 23.6582 6.13515C23.8395 6.08386 24.0322 6.08929 24.2103 6.15071C24.3884 6.21214 24.5435 6.32661 24.6546 6.47875C24.7624 6.62702 24.8229 6.80437 24.8282 6.98759C24.8335 7.17082 24.7833 7.35137 24.6843 7.50563C24.5844 7.65141 24.4715 7.78788 24.347 7.91341C21.2324 11.173 18.1168 14.4313 15.0002 17.6883C14.9219 17.7666 14.8437 17.8543 14.7521 17.9537L24.4785 25.9143L30.1412 1.839ZM11.2707 21.7019L11.3318 21.6941C11.3513 21.637 11.3725 21.5806 11.3889 21.5227C11.7208 20.3643 12.0377 19.2005 12.3954 18.0499C12.493 17.7354 12.6587 17.4463 12.8807 17.2031C14.7529 15.2205 16.6438 13.2544 18.5277 11.2836C18.606 11.2054 18.6765 11.1161 18.7508 11.0332L18.7062 10.9862L10.0012 15.8201C10.4293 17.8073 10.8496 19.7546 11.2707 21.7019ZM13.8786 19.667C13.5366 20.8645 13.2032 22.0275 12.8463 23.2767L15.6897 21.1478L13.8786 19.667Z" fill="#F8962E"/>
</g>
<defs>
<clipPath id="clip0_723_1804">
<rect width="32" height="27.7492" fill="white"/>
</clipPath>
</defs>
</svg>
