<svg width="82" height="82" viewBox="0 0 82 82" fill="none" xmlns="http://www.w3.org/2000/svg">
<path d="M41.9027 79.5047L47.4228 65.9136C50.4714 58.4075 56.8839 52.5221 65.0023 50.2942L79.1485 46.4119C82.0474 45.6162 82.2851 41.5813 79.5004 40.4502L65.9094 34.9301C58.4032 31.8817 52.518 25.4689 50.2899 17.3507L46.4074 3.20466C45.6118 0.305734 41.5768 0.0681453 40.4458 2.85269L34.9257 16.4436C31.8771 23.9498 25.4646 29.835 17.3462 32.063L3.20005 35.9455C0.301113 36.7412 0.0635266 40.7761 2.84807 41.9072L16.4391 47.4271C23.945 50.4756 29.8305 56.8884 32.0586 65.0065L35.9411 79.1527C36.7367 82.0518 40.7718 82.2891 41.9027 79.5047ZM68.5101 42.7924L63.3333 44.2131C53.6658 46.8663 45.5002 53.8893 41.5803 63.5407L39.5604 68.5144L38.1396 63.3375C35.4864 53.67 28.4634 45.5045 18.812 41.5846L13.8384 39.5647L19.0153 38.1438C28.6827 35.4906 36.8483 28.4677 40.7682 18.8163L42.7882 13.8425L44.209 19.0194C46.8622 28.6869 53.8851 36.8524 63.5364 40.7723L68.5101 42.7924Z" fill="#D9D9D9"/>
</svg>
